# xmcd
#
# Track frame offsets: 
#        150
#        20532
#        47694
#        62238
#        80293
#        99490
#        113675
#        126662
#        158848
#
# Disc length: 2348 seconds
#
# Revision: 0
# Processed by: cddbd v1.5.2PL0 Copyright (c) Steve Scherf et al.
# Submitted via: ExactAudioCopyFreeDBPlugin 1.0
#
DISCID=71092a09
DTITLE=Juicy Lucy - Lie Back And Enjoy It
DYEAR=2011
DGENRE=Blues
TTITLE0=Thinking Of My Life
TTITLE1=Built For Comfort
TTITLE2=Pretty Woman
TTITLE3=Whisky In My Jar
TTITLE4=Hello La By Bye Birmingham
TTITLE5=Changed My Mind
TTITLE6=That Woman's Got Something
TTITLE7=Willie The Pimp Lie Back and Enjoy It
TTITLE8=I'm A Thief
EXTD=
EXTT0=
EXTT1=
EXTT2=
EXTT3=
EXTT4=
EXTT5=
EXTT6=
EXTT7=
EXTT8=
PLAYORDER=
